<svg width="101" height="22" viewBox="0 0 101 22" fill="none" xmlns="http://www.w3.org/2000/svg">
<path fill-rule="evenodd" clip-rule="evenodd" d="M2.97896 0.166656C1.74214 0.166656 0.739502 1.1693 0.739502 2.40612V14.875C0.739502 16.1118 1.74214 17.1145 2.97896 17.1145H7.13013C12.1522 17.1145 15.1097 13.9551 15.1097 8.57597C15.1097 3.19683 12.1522 0.166656 7.13013 0.166656H2.97896ZM4.24217 3.09112H6.7126C9.79773 3.09112 11.5375 5.04077 11.5375 8.58772C11.5375 12.2521 9.84412 14.1783 6.7126 14.1783H4.24217V3.09112ZM17.9312 17.1145C17.3128 17.1145 16.8115 16.6132 16.8115 15.9947V5.64373C16.8115 5.02532 17.3128 4.524 17.9312 4.524H18.9625C19.5809 4.524 20.0822 5.02532 20.0822 5.64373V6.79075H20.1518C20.5925 5.19345 21.648 4.32433 23.1094 4.32433C23.5037 4.32433 23.84 4.38306 24.072 4.45353V7.47195C23.7936 7.35451 23.3297 7.27229 22.8426 7.27229C21.1724 7.27229 20.1982 8.30584 20.1982 10.0793V15.9947C20.1982 16.6132 19.6969 17.1145 19.0785 17.1145H17.9312ZM30.4827 17.3846C34.2405 17.3846 36.6413 14.9534 36.6413 10.8075C36.6413 6.72028 34.2057 4.25386 30.4827 4.25386C26.7596 4.25386 24.324 6.73203 24.324 10.8075C24.324 14.9417 26.7248 17.3846 30.4827 17.3846ZM27.7571 10.8192C27.7571 13.3444 28.8125 14.7655 30.4827 14.7655C32.1412 14.7655 33.1967 13.3444 33.1967 10.8192C33.1967 8.31758 32.1296 6.87297 30.4827 6.87297C28.8357 6.87297 27.7571 8.31758 27.7571 10.8192ZM45.3717 4.32433C43.5739 4.32433 42.1937 5.24043 41.521 6.72028H41.4514V5.64373C41.4514 5.02532 40.9501 4.524 40.3317 4.524H39.2309C38.6125 4.524 38.1112 5.02532 38.1112 5.64373V20.1054C38.1112 20.7239 38.6125 21.2252 39.2309 21.2252H40.3781C40.9965 21.2252 41.4978 20.7239 41.4978 20.1054V15.0004H41.5674C42.2285 16.4215 43.6203 17.3141 45.4296 17.3141C48.538 17.3141 50.4633 14.8712 50.4633 10.8192C50.4633 6.75552 48.5264 4.32433 45.3717 4.32433ZM41.4862 10.8192C41.4862 13.0977 42.5765 14.5541 44.235 14.5541C45.9284 14.5541 46.9954 13.1095 46.9954 10.8192C46.9954 8.54074 45.9284 7.07263 44.235 7.07263C42.5765 7.07263 41.4862 8.56423 41.4862 10.8192ZM51.7243 8.22362C51.7243 5.82767 53.7656 4.25386 56.9319 4.25386C60.1215 4.25386 62.0932 5.90989 62.1627 8.37631H59.0428C58.9384 7.35451 58.1845 6.66156 56.9319 6.66156C55.7605 6.66156 54.9834 7.20182 54.9834 8.03571C54.9834 8.68167 55.4474 9.11623 56.7 9.38636L58.8225 9.84441C61.4205 10.3964 62.4875 11.43 62.4875 13.2739C62.4875 15.7521 60.249 17.3846 57.0479 17.3846C53.6148 17.3846 51.6315 15.7638 51.4112 13.2857H54.7167C54.9254 14.3897 55.7025 14.9769 57.0479 14.9769C58.3237 14.9769 59.1124 14.4484 59.1124 13.6263C59.1124 12.9568 58.6833 12.581 57.4655 12.2991L55.343 11.8528C52.9421 11.336 51.7243 10.1145 51.7243 8.22362ZM72.4514 15.9947C72.4514 16.6132 71.9501 17.1145 71.3317 17.1145H70.0685C69.4501 17.1145 68.9488 16.6132 68.9488 15.9947V3.09112H65.232C64.6136 3.09112 64.1123 2.5898 64.1123 1.9714V1.28639C64.1123 0.667976 64.6136 0.166656 65.232 0.166656H76.1798C76.7982 0.166656 77.2995 0.667976 77.2995 1.28639V1.97139C77.2995 2.5898 76.7982 3.09112 76.1798 3.09112H72.4514V15.9947ZM83.3158 15.1883C82.6199 16.5272 81.0774 17.3141 79.5232 17.3141C77.1572 17.3141 75.3594 15.7638 75.3594 13.4971C75.3594 11.2068 77.0992 9.87965 80.1959 9.69173L83.3274 9.50381V8.66993C83.3274 7.49544 82.5156 6.81424 81.2397 6.81424C79.9755 6.81424 79.1753 7.44846 79.0129 8.37631H75.9162C76.0437 5.93338 78.0966 4.25386 81.3905 4.25386C84.58 4.25386 86.6561 5.92163 86.6561 8.45852V15.9947C86.6561 16.6132 86.1548 17.1145 85.5364 17.1145H84.5051C83.8867 17.1145 83.3854 16.6132 83.3854 15.9947V15.1883H83.3158ZM80.6366 14.836C79.4884 14.836 78.7229 14.2487 78.7229 13.3091C78.7229 12.4165 79.442 11.841 80.7062 11.7471L83.3274 11.5827V12.4988C83.3274 13.8612 82.1096 14.836 80.6366 14.836ZM101 10.8192C101 14.8712 99.0863 17.3141 95.9548 17.3141C94.1338 17.3141 92.742 16.4215 92.0577 14.9534H91.9882V15.9947C91.9882 16.6132 91.4868 17.1145 90.8684 17.1145H89.7676C89.1492 17.1145 88.6479 16.6132 88.6479 15.9947V1.28639C88.6479 0.667977 89.1492 0.166656 89.7676 0.166656H90.9148C91.5332 0.166656 92.0345 0.667976 92.0345 1.28639V6.70854H92.1041C92.7884 5.21694 94.1686 4.32433 95.9432 4.32433C99.0747 4.32433 101 6.75552 101 10.8192ZM94.7833 7.07263C96.4651 7.07263 97.5321 8.52899 97.5321 10.8192C97.5321 13.1212 96.4767 14.5541 94.7833 14.5541C93.1364 14.5541 92.0229 13.0977 92.0229 10.8192C92.0229 8.56423 93.148 7.07263 94.7833 7.07263Z" fill="#111827"/>
</svg>
